<svg width="84" height="84" viewBox="0 0 84 84" fill="none" xmlns="http://www.w3.org/2000/svg">
<g clip-path="url(#clip0_784_1121)">
<mask id="mask0_784_1121" style="mask-type:luminance" maskUnits="userSpaceOnUse" x="2" y="2" width="80" height="80">
<path d="M82 2H2V82H82V2Z" fill="white"/>
</mask>
<g mask="url(#mask0_784_1121)">
<path d="M14 2H70C76.6274 2 82 7.37258 82 14V70C82 76.6274 76.6274 82 70 82H14C7.37258 82 2 76.6274 2 70V14C2 7.37258 7.37258 2 14 2Z" fill="#EEEEEE"/>
<path opacity="0.2" d="M32.3001 96.7847C56.5858 95.9366 75.5858 75.5617 74.7377 51.2759C73.8897 26.9902 53.5147 7.99024 29.229 8.83831C4.94322 9.68639 -14.0567 30.0614 -13.2087 54.3471C-12.3606 78.6328 8.01438 97.6328 32.3001 96.7847Z" fill="#606060"/>
<path d="M32.8906 38.6396C32.583 40.8283 33.4473 43.0902 35.2932 44.9278C37.1392 46.7654 39.8157 48.0281 42.7338 48.4382C45.652 48.8484 48.5728 48.3723 50.8538 47.1147C53.1348 45.8571 54.589 43.921 54.8966 41.7324" fill="#35363A"/>
<path d="M32.8906 38.6396C32.583 40.8283 33.4473 43.0902 35.2932 44.9278C37.1392 46.7654 39.8157 48.0281 42.7338 48.4382C45.652 48.8484 48.5728 48.3723 50.8538 47.1147C53.1348 45.8571 54.589 43.921 54.8966 41.7324" fill="black" fill-opacity="0.2"/>
<path d="M33.3363 27.4819C33.5072 26.2665 32.9067 25.1774 31.9952 25.0493C31.0837 24.9212 30.2063 25.8026 30.0355 27.018C29.8646 28.2333 30.4651 29.3224 31.3766 29.4505C32.2881 29.5786 33.1655 28.6972 33.3363 27.4819Z" fill="#35363A"/>
<path d="M33.3363 27.4819C33.5072 26.2665 32.9067 25.1774 31.9952 25.0493C31.0837 24.9212 30.2063 25.8026 30.0355 27.018C29.8646 28.2333 30.4651 29.3224 31.3766 29.4505C32.2881 29.5786 33.1655 28.6972 33.3363 27.4819Z" fill="black" fill-opacity="0.2"/>
<path d="M59.7436 31.1928C59.9144 29.9775 59.3139 28.8884 58.4024 28.7603C57.4909 28.6322 56.6135 29.5136 56.4427 30.7289C56.2719 31.9443 56.8723 33.0334 57.7839 33.1615C58.6954 33.2896 59.5728 32.4082 59.7436 31.1928Z" fill="#35363A"/>
<path d="M59.7436 31.1928C59.9144 29.9775 59.3139 28.8884 58.4024 28.7603C57.4909 28.6322 56.6135 29.5136 56.4427 30.7289C56.2719 31.9443 56.8723 33.0334 57.7839 33.1615C58.6954 33.2896 59.5728 32.4082 59.7436 31.1928Z" fill="black" fill-opacity="0.2"/>
</g>
<mask id="path-9-inside-1_784_1121" fill="white">
<path d="M10 56C10 52.6863 12.6863 50 16 50H28C31.3137 50 34 52.6863 34 56V68C34 71.3137 31.3137 74 28 74H16C12.6863 74 10 71.3137 10 68V56Z"/>
</mask>
<path d="M10 56C10 52.6863 12.6863 50 16 50H28C31.3137 50 34 52.6863 34 56V68C34 71.3137 31.3137 74 28 74H16C12.6863 74 10 71.3137 10 68V56Z" fill="white"/>
<path d="M16 50V51H28V50V49H16V50ZM34 56H33V68H34H35V56H34ZM28 74V73H16V74V75H28V74ZM10 68H11V56H10H9V68H10ZM16 74V73C13.2386 73 11 70.7614 11 68H10H9C9 71.866 12.134 75 16 75V74ZM34 68H33C33 70.7614 30.7614 73 28 73V74V75C31.866 75 35 71.866 35 68H34ZM28 50V51C30.7614 51 33 53.2386 33 56H34H35C35 52.134 31.866 49 28 49V50ZM16 50V49C12.134 49 9 52.134 9 56H10H11C11 53.2386 13.2386 51 16 51V50Z" fill="#2A2B2E" mask="url(#path-9-inside-1_784_1121)"/>
<path d="M27.625 63.75V65.625C27.625 66.4534 26.9534 67.125 26.125 67.125H17.875C17.0466 67.125 16.375 66.4534 16.375 65.625V63.75" stroke="#2A2B2E" stroke-linecap="round"/>
<path d="M22 56.25V64.875" stroke="#2A2B2E" stroke-linecap="round"/>
<path d="M19 59.0327L22 56.0327L25 59.0327" stroke="#2A2B2E" stroke-linecap="round"/>
</g>
<rect x="1" y="1" width="82" height="82" rx="17" stroke="white" stroke-width="2"/>
<defs>
<clipPath id="clip0_784_1121">
<rect x="2" y="2" width="80" height="80" rx="16" fill="white"/>
</clipPath>
</defs>
</svg>
