<svg width="16" height="16" viewBox="0 0 16 16" fill="none" xmlns="http://www.w3.org/2000/svg">
<circle cx="8" cy="8" r="7.5" stroke="currentColor"/>
<path d="M7.60645 4.91113C7.85783 4.80348 8.14217 4.80348 8.39355 4.91113C8.4895 4.95225 8.61834 5.05036 8.82422 5.32129C9.02976 5.59184 9.26891 5.97361 9.61133 6.52148L10.2812 7.59277C10.661 8.20033 10.9272 8.62683 11.0967 8.96289C11.2679 9.30241 11.2986 9.47383 11.29 9.58008C11.2669 9.86744 11.1211 10.1308 10.8896 10.3027C10.8041 10.3663 10.6422 10.4301 10.2637 10.4648C9.88888 10.4992 9.3863 10.5 8.66992 10.5H7.33008C6.6137 10.5 6.11112 10.4992 5.73633 10.4648C5.3578 10.4301 5.19595 10.3663 5.11035 10.3027C4.87891 10.1308 4.73306 9.86744 4.70996 9.58008C4.70143 9.47383 4.73208 9.30241 4.90332 8.96289C5.07283 8.62683 5.33903 8.20033 5.71875 7.59277L6.38867 6.52148C6.73109 5.97361 6.97024 5.59184 7.17578 5.32129C7.38166 5.05036 7.5105 4.95225 7.60645 4.91113Z" stroke="currentColor"/>
</svg>
