<svg width="12" height="12" viewBox="0 0 12 12" fill="none" xmlns="http://www.w3.org/2000/svg">
<mask id="path-1-inside-1_1287_46198" fill="white">
<path d="M10 1H9V3C9 4.65685 7.65685 6 6 6C4.34315 6 3 4.65685 3 3V1H2V0H10V1Z"/>
</mask>
<path d="M10 1V2H11V1H10ZM9 1V0H8V1H9ZM3 1H4V0H3V1ZM2 1H1V2H2V1ZM2 0V-1H1V0H2ZM10 0H11V-1H10V0ZM10 1V0H9V1V2H10V1ZM9 1H8V3H9H10V1H9ZM9 3H8C8 4.10457 7.10457 5 6 5V6V7C8.20914 7 10 5.20914 10 3H9ZM6 6V5C4.89543 5 4 4.10457 4 3H3H2C2 5.20914 3.79086 7 6 7V6ZM3 3H4V1H3H2V3H3ZM3 1V0H2V1V2H3V1ZM2 1H3V0H2H1V1H2ZM2 0V1H10V0V-1H2V0ZM10 0H9V1H10H11V0H10Z" fill="#606060" mask="url(#path-1-inside-1_1287_46198)"/>
<mask id="path-3-inside-2_1287_46198" fill="white">
<path d="M2 11L3 11L3 9C3 7.34315 4.34315 6 6 6C7.65685 6 9 7.34315 9 9L9 11L10 11L10 12L2 12L2 11Z"/>
</mask>
<path d="M2 11L2 10L1 10L1 11L2 11ZM3 11L3 12L4 12L4 11L3 11ZM9 11L8 11L8 12L9 12L9 11ZM10 11L11 11L11 10L10 10L10 11ZM10 12L10 13L11 13L11 12L10 12ZM2 12L1 12L1 13L2 13L2 12ZM2 11L2 12L3 12L3 11L3 10L2 10L2 11ZM3 11L4 11L4 9L3 9L2 9L2 11L3 11ZM3 9L4 9C4 7.89543 4.89543 7 6 7L6 6L6 5C3.79086 5 2 6.79086 2 9L3 9ZM6 6L6 7C7.10457 7 8 7.89543 8 9L9 9L10 9C10 6.79086 8.20914 5 6 5L6 6ZM9 9L8 9L8 11L9 11L10 11L10 9L9 9ZM9 11L9 12L10 12L10 11L10 10L9 10L9 11ZM10 11L9 11L9 12L10 12L11 12L11 11L10 11ZM10 12L10 11L2 11L2 12L2 13L10 13L10 12ZM2 12L3 12L3 11L2 11L1 11L1 12L2 12Z" fill="#606060" mask="url(#path-3-inside-2_1287_46198)"/>
</svg>
