<svg width="19" height="22" viewBox="0 0 19 22" fill="none" xmlns="http://www.w3.org/2000/svg">
<path fill-rule="evenodd" clip-rule="evenodd" d="M17.3593 21.0079C17.6211 21.4447 17.3065 22.0001 16.7973 22.0001H2.21976C1.71064 22.0001 1.396 21.4449 1.65762 21.0081L2.93272 18.8794C3.12469 18.5589 3.54449 18.4652 3.86811 18.6518C5.51253 19.6001 7.43851 20.1475 9.49896 20.1475C11.5647 20.1475 13.4952 19.597 15.1424 18.6442C15.466 18.457 15.8862 18.5504 16.0784 18.8711L17.3593 21.0079ZM8.9472 8.84481C9.20164 8.42022 9.81678 8.42022 10.0712 8.84481L14.3559 15.995C14.5331 16.2908 14.452 16.6757 14.1559 16.8524C12.8048 17.6588 11.2092 18.1261 9.49896 18.1261C7.79522 18.126 6.20517 17.6626 4.8573 16.8619C4.56041 16.6855 4.47883 16.3 4.65636 16.0038L8.9472 8.84481Z" fill="black"/>
<path d="M9.5 17.4628C4.9128 17.4628 1.22852 13.8096 1.22852 9.34558C1.22856 4.88163 4.91283 1.22839 9.5 1.22839C14.0872 1.22839 17.7714 4.88163 17.7715 9.34558C17.7715 13.8096 14.0872 17.4628 9.5 17.4628Z" stroke="url(#paint0_linear_1781_1268)" stroke-width="2.45729"/>
<defs>
<linearGradient id="paint0_linear_1781_1268" x1="9.5" y1="2.67029e-05" x2="9.5" y2="18.6913" gradientUnits="userSpaceOnUse">
<stop stop-color="#FF78E6"/>
<stop offset="1" stop-color="#9542FF"/>
</linearGradient>
</defs>
</svg>
