<svg width="12" height="12" viewBox="0 0 12 12" fill="none" xmlns="http://www.w3.org/2000/svg">
<circle cx="6" cy="6" r="5.5" stroke="#606060"/>
<path d="M5.35661 8.73455C5.35661 9.16719 5.65586 9.5 6.03491 9.5C6.41397 9.5 6.71322 9.16719 6.71322 8.73455C6.71322 8.3019 6.41397 7.9691 6.03491 7.9691C5.65586 7.9691 5.35661 8.3019 5.35661 8.73455ZM8 4.47464C8 3.26545 7.2818 2.5 6.05486 2.5C4.91771 2.5 4.1197 3.38748 4 4.65214H5.07731C5.11721 4.00872 5.43641 3.5206 6.05486 3.5206C6.63342 3.5206 6.98254 3.91997 6.98254 4.48574C6.98254 5.07369 6.53367 5.42868 6.19451 5.85024C5.75561 6.38273 5.61596 6.67116 5.58604 7.2813H6.56359C6.56359 7.04834 6.63342 6.80428 6.98254 6.40491C7.45137 5.87242 8 5.30666 8 4.47464Z" fill="#606060"/>
</svg>
