<svg width="12" height="12" viewBox="0 0 12 12" fill="none" xmlns="http://www.w3.org/2000/svg">
<path d="M0.510567 5.6402L0.510315 5.64115L0.0872432 5.61271L0.0129581 5.60696C0.0386448 5.22202 0.100811 4.83386 0.204448 4.44708C0.308172 4.05998 0.448391 3.69236 0.618807 3.3459L1.51463 3.78713C1.37292 4.07529 1.25709 4.38225 1.17037 4.7059C1.08365 5.02954 1.03048 5.35329 1.00912 5.6737L0.510567 5.6402ZM4.39352 1.26465C3.77193 1.47628 3.19639 1.80857 2.70232 2.24106L2.37371 1.86386L2.37251 1.86455L2.07456 1.52387L2.04459 1.48855C2.63704 0.970078 3.32658 0.571769 4.07188 0.318093L4.39352 1.26465ZM1.86482 9.62654L1.86456 9.62748L1.78931 9.69326L1.4895 9.95566C0.970891 9.36321 0.572818 8.67372 0.319048 7.92837L0.362407 7.9137L0.790783 7.76764L0.791726 7.76789L1.26466 7.60648C1.4763 8.22806 1.80859 8.8036 2.24107 9.29768L1.86482 9.62654ZM7.2941 1.17036C6.97046 1.08364 6.64671 1.03047 6.32629 1.00911L6.36004 0.509613L6.35885 0.510304L6.39329 0.0120038C6.77816 0.0376984 7.1662 0.100817 7.55292 0.204437L7.2941 1.17036ZM4.44709 11.7955C4.06031 11.6919 3.69306 11.5517 3.34686 11.3814L3.56593 10.9336L3.56687 10.9339L3.78714 10.4854C4.0753 10.6271 4.38227 10.7429 4.70591 10.8296L4.44709 11.7955Z" fill="#606060"/>
<path d="M11.7955 7.55291C10.9379 10.7537 7.64786 12.6532 4.44707 11.7956L4.70589 10.8296C7.37322 11.5443 10.1149 9.96142 10.8296 7.29409C11.5443 4.62676 9.96141 1.88508 7.29408 1.17037L7.55289 0.20444C10.7537 1.06209 12.6532 4.35211 11.7955 7.55291Z" fill="#606060"/>
<path d="M6 2.25V6L8.25 8.25" stroke="#606060" stroke-linecap="round"/>
</svg>
