<svg width="12" height="12" viewBox="0 0 12 12" fill="none" xmlns="http://www.w3.org/2000/svg">
<path d="M3 0.500031L4.25 0.500031C4.52614 0.500031 4.75 0.723889 4.75 1.00003L4.75 2.25003C4.74999 3.63073 3.6307 4.75003 2.25 4.75003L1 4.75003C0.723864 4.75003 0.50001 4.52616 0.5 4.25003L0.5 3.00003C0.5 1.61932 1.61929 0.500031 3 0.500031Z" stroke="#606060"/>
<path d="M11.5 7.4346C11.5 9.67975 9.67972 11.5 7.43457 11.5C7.33269 11.4999 7.25012 11.4173 7.25 11.3155L7.25 8.06253C7.25 7.6138 7.61377 7.25003 8.0625 7.25003L11.3154 7.25003C11.4173 7.25014 11.4999 7.33272 11.5 7.4346Z" stroke="#606060"/>
<rect x="7.25" y="0.5" width="4.25" height="4.24998" rx="2.12499" stroke="#606060"/>
<path d="M2.25781 7.47659C2.40919 7.17432 2.84082 7.17432 2.99219 7.47659L4.70508 10.9053C4.84169 11.1787 4.64338 11.4997 4.33887 11.5L0.911132 11.5C0.606618 11.4997 0.408305 11.1787 0.544922 10.9053L2.25781 7.47659Z" stroke="#606060"/>
</svg>
